<svg xmlns="http://www.w3.org/2000/svg" viewBox="0 0 166.54 58.56"><title>faq3</title><path d="M80.56,97.73a.16.16,0,0,1,0,.12.21.21,0,0,1-.14.09,1.43,1.43,0,0,1-.28,0l-.43,0-.44,0a1.46,1.46,0,0,1-.27,0,.27.27,0,0,1-.15-.09.16.16,0,0,1,0-.12V90.62h-3.3v7.11a.16.16,0,0,1,0,.12.27.27,0,0,1-.15.09A1.46,1.46,0,0,1,75,98l-.44,0-.44,0a1.46,1.46,0,0,1-.27,0,.27.27,0,0,1-.15-.09.21.21,0,0,1,0-.12v-8a.56.56,0,0,1,.15-.43.52.52,0,0,1,.38-.14H80a.53.53,0,0,1,.39.14.6.6,0,0,1,.13.43Z" transform="translate(-73.61 -85.8)"/><path d="M88,94.51a.62.62,0,0,1-.14.46.49.49,0,0,1-.38.15H83.78a2.26,2.26,0,0,0,.1.71,1.41,1.41,0,0,0,.29.54,1.27,1.27,0,0,0,.52.34,2.18,2.18,0,0,0,.76.11,4.54,4.54,0,0,0,.79-.06,5.39,5.39,0,0,0,.6-.14l.41-.15a.83.83,0,0,1,.27-.06l.1,0a.22.22,0,0,1,.07.09.4.4,0,0,1,0,.17,2.35,2.35,0,0,1,0,.28v.26c0,.07,0,.13,0,.18s0,.09,0,.13l-.08.1a1.08,1.08,0,0,1-.24.13,4.27,4.27,0,0,1-.5.16,5.68,5.68,0,0,1-.71.13,5.57,5.57,0,0,1-.85.06,4.68,4.68,0,0,1-1.42-.2,2.62,2.62,0,0,1-1-.62,2.47,2.47,0,0,1-.61-1.06A4.74,4.74,0,0,1,82,94.75a4.43,4.43,0,0,1,.22-1.46,3,3,0,0,1,.61-1.11,2.73,2.73,0,0,1,1-.69,3.38,3.38,0,0,1,1.3-.24,3.42,3.42,0,0,1,1.31.22,2.36,2.36,0,0,1,.9.63,2.52,2.52,0,0,1,.51.94A4.17,4.17,0,0,1,88,94.23ZM86.35,94a1.69,1.69,0,0,0-.29-1.13,1.1,1.1,0,0,0-1-.42,1.14,1.14,0,0,0-.57.13,1.16,1.16,0,0,0-.4.33,1.51,1.51,0,0,0-.25.49,2.89,2.89,0,0,0-.1.6Z" transform="translate(-73.61 -85.8)"/><path d="M95.58,94.6a5.45,5.45,0,0,1-.18,1.46,3,3,0,0,1-.51,1.11,2.27,2.27,0,0,1-.83.71,2.61,2.61,0,0,1-1.14.24,1.89,1.89,0,0,1-.49-.05,1.4,1.4,0,0,1-.43-.16,2.4,2.4,0,0,1-.42-.26c-.13-.1-.27-.23-.42-.37v2.87a.2.2,0,0,1,0,.13.56.56,0,0,1-.14.09l-.26.06-.42,0-.42,0-.26-.06a.42.42,0,0,1-.14-.09.2.2,0,0,1,0-.13V91.64a.21.21,0,0,1,0-.12.19.19,0,0,1,.12-.09,1,1,0,0,1,.23-.05l.35,0,.34,0a1,1,0,0,1,.23.05.19.19,0,0,1,.12.09.21.21,0,0,1,0,.12v.71c.18-.18.36-.34.53-.48a3.38,3.38,0,0,1,.52-.35,2.83,2.83,0,0,1,.55-.21,2.91,2.91,0,0,1,.6-.06,2.3,2.3,0,0,1,1.15.26,2.1,2.1,0,0,1,.76.72,3.22,3.22,0,0,1,.44,1.07A6,6,0,0,1,95.58,94.6Zm-1.8.12a4.57,4.57,0,0,0,0-.75,2.4,2.4,0,0,0-.2-.64,1.26,1.26,0,0,0-.37-.45.94.94,0,0,0-.57-.16,1,1,0,0,0-.34,0,1.31,1.31,0,0,0-.34.16,2,2,0,0,0-.36.31,4.87,4.87,0,0,0-.39.45v2a3.91,3.91,0,0,0,.69.71,1.1,1.1,0,0,0,.68.25.94.94,0,0,0,.57-.17,1.23,1.23,0,0,0,.39-.45,2,2,0,0,0,.22-.62A3.39,3.39,0,0,0,93.78,94.72Z" transform="translate(-73.61 -85.8)"/><path d="M102.58,94.51a.62.62,0,0,1-.14.46.49.49,0,0,1-.38.15H98.34a2.59,2.59,0,0,0,.1.71,1.41,1.41,0,0,0,.29.54,1.27,1.27,0,0,0,.52.34,2.18,2.18,0,0,0,.76.11,4.74,4.74,0,0,0,.8-.06,5.75,5.75,0,0,0,.59-.14l.41-.15a.83.83,0,0,1,.27-.06l.1,0a.22.22,0,0,1,.07.09.61.61,0,0,1,0,.17c0,.08,0,.17,0,.28s0,.19,0,.26,0,.13,0,.18a.5.5,0,0,1,0,.13.61.61,0,0,1-.07.1,1.26,1.26,0,0,1-.25.13,4.27,4.27,0,0,1-.5.16,5.68,5.68,0,0,1-.71.13,5.57,5.57,0,0,1-.85.06,4.68,4.68,0,0,1-1.42-.2,2.62,2.62,0,0,1-1-.62,2.47,2.47,0,0,1-.61-1.06,5.17,5.17,0,0,1,0-2.95,3,3,0,0,1,.61-1.11,2.73,2.73,0,0,1,1-.69,3.38,3.38,0,0,1,1.3-.24,3.42,3.42,0,0,1,1.31.22,2.36,2.36,0,0,1,.9.63,2.52,2.52,0,0,1,.51.94,4.17,4.17,0,0,1,.16,1.19Zm-1.67-.5a1.69,1.69,0,0,0-.29-1.13,1.1,1.1,0,0,0-1-.42,1.14,1.14,0,0,0-.57.13,1.16,1.16,0,0,0-.4.33,1.51,1.51,0,0,0-.25.49,2.89,2.89,0,0,0-.1.6Z" transform="translate(-73.61 -85.8)"/><path d="M108.61,96.76a2.63,2.63,0,0,1,0,.3.94.94,0,0,1,0,.2.47.47,0,0,1,0,.14.44.44,0,0,1-.1.12,1.59,1.59,0,0,1-.28.2,4.68,4.68,0,0,1-.45.2,4.42,4.42,0,0,1-.55.14,3.18,3.18,0,0,1-.62.06,3.39,3.39,0,0,1-1.24-.22,2.34,2.34,0,0,1-.92-.65,2.79,2.79,0,0,1-.55-1,5.44,5.44,0,0,1,0-3,3,3,0,0,1,.64-1.11,2.59,2.59,0,0,1,1-.65,3.45,3.45,0,0,1,1.23-.21,3.07,3.07,0,0,1,.53,0,3.65,3.65,0,0,1,.5.13,3.14,3.14,0,0,1,.41.19,1,1,0,0,1,.25.17l.11.13a.39.39,0,0,1,0,.13,1.12,1.12,0,0,1,0,.2,2.53,2.53,0,0,1,0,.29,1.75,1.75,0,0,1-.06.56c0,.11-.11.16-.18.16a.45.45,0,0,1-.25-.09,2.08,2.08,0,0,0-.31-.21,2.33,2.33,0,0,0-.42-.22,1.7,1.7,0,0,0-.59-.09,1.16,1.16,0,0,0-1,.51,2.67,2.67,0,0,0-.36,1.52,3.75,3.75,0,0,0,.09.87,1.87,1.87,0,0,0,.26.62,1.14,1.14,0,0,0,.44.38,1.33,1.33,0,0,0,.61.13,1.49,1.49,0,0,0,.62-.11,2,2,0,0,0,.44-.23,3.78,3.78,0,0,0,.32-.24.38.38,0,0,1,.22-.1.2.2,0,0,1,.11,0,.4.4,0,0,1,.06.13,1.2,1.2,0,0,1,0,.23C108.61,96.49,108.61,96.61,108.61,96.76Z" transform="translate(-73.61 -85.8)"/><path d="M114.38,92.16a2.12,2.12,0,0,1,0,.38.72.72,0,0,1,0,.24.23.23,0,0,1-.08.12.24.24,0,0,1-.12,0h-1.53v4.8a.21.21,0,0,1,0,.12.28.28,0,0,1-.14.09,1.33,1.33,0,0,1-.26,0l-.42,0-.41,0a1.46,1.46,0,0,1-.27,0,.22.22,0,0,1-.13-.09.16.16,0,0,1,0-.12v-4.8h-1.54a.21.21,0,0,1-.12,0,.48.48,0,0,1-.09-.13,1.09,1.09,0,0,1-.05-.25c0-.1,0-.23,0-.38a1.67,1.67,0,0,1,0-.34,1,1,0,0,1,0-.23.32.32,0,0,1,.08-.13.25.25,0,0,1,.12,0h4.78a.25.25,0,0,1,.12,0,.32.32,0,0,1,.08.13.71.71,0,0,1,0,.23A1.94,1.94,0,0,1,114.38,92.16Z" transform="translate(-73.61 -85.8)"/><path d="M120.51,97.75a.18.18,0,0,1-.07.15.41.41,0,0,1-.22.08,2.31,2.31,0,0,1-.43,0,2.34,2.34,0,0,1-.45,0,.34.34,0,0,1-.2-.08.18.18,0,0,1-.06-.15v-.48a2.73,2.73,0,0,1-.85.63,2.5,2.5,0,0,1-1.07.22,3.21,3.21,0,0,1-.9-.12,2.06,2.06,0,0,1-.7-.38,1.68,1.68,0,0,1-.46-.62,2.06,2.06,0,0,1-.16-.86,2,2,0,0,1,.2-.93,1.78,1.78,0,0,1,.63-.65,3,3,0,0,1,1-.37,6.77,6.77,0,0,1,1.43-.13h.6v-.37a1.85,1.85,0,0,0-.06-.5.89.89,0,0,0-.19-.36.9.9,0,0,0-.36-.21,1.75,1.75,0,0,0-.55-.07,2.66,2.66,0,0,0-.77.1,3.67,3.67,0,0,0-.59.21l-.44.21a.56.56,0,0,1-.28.1.24.24,0,0,1-.14,0,.38.38,0,0,1-.09-.14.64.64,0,0,1-.06-.22,2.3,2.3,0,0,1,0-.28,1.52,1.52,0,0,1,0-.34.71.71,0,0,1,.13-.22,1.33,1.33,0,0,1,.34-.22,4.37,4.37,0,0,1,.56-.22,4.48,4.48,0,0,1,.7-.17,4.93,4.93,0,0,1,.78-.06,4.43,4.43,0,0,1,1.23.14,2,2,0,0,1,.84.43,1.62,1.62,0,0,1,.48.75,3.43,3.43,0,0,1,.15,1.08Zm-1.69-2.61h-.66a3.62,3.62,0,0,0-.71.06,1.66,1.66,0,0,0-.48.19.77.77,0,0,0-.27.3,1,1,0,0,0-.08.4.78.78,0,0,0,.24.6,1,1,0,0,0,.67.22,1.3,1.3,0,0,0,.67-.19,2.68,2.68,0,0,0,.62-.54Z" transform="translate(-73.61 -85.8)"/><path d="M128.13,97.73a.21.21,0,0,1,0,.12.28.28,0,0,1-.14.09,1.2,1.2,0,0,1-.26,0l-.42,0-.42,0a1.2,1.2,0,0,1-.26,0,.28.28,0,0,1-.14-.09.21.21,0,0,1,0-.12v-2.4h-2.47v2.4a.16.16,0,0,1,0,.12.21.21,0,0,1-.14.09,1.2,1.2,0,0,1-.26,0l-.42,0-.41,0a1.46,1.46,0,0,1-.27,0,.28.28,0,0,1-.14-.09.21.21,0,0,1,0-.12V91.64a.21.21,0,0,1,0-.12.28.28,0,0,1,.14-.09,1.46,1.46,0,0,1,.27-.05l.41,0,.42,0a1.2,1.2,0,0,1,.26.05.21.21,0,0,1,.14.09.16.16,0,0,1,0,.12v2.28h2.47V91.64a.21.21,0,0,1,0-.12.28.28,0,0,1,.14-.09,1.2,1.2,0,0,1,.26-.05l.42,0,.42,0a1.2,1.2,0,0,1,.26.05.28.28,0,0,1,.14.09.21.21,0,0,1,0,.12Z" transform="translate(-73.61 -85.8)"/><path d="M136,94.62a4.51,4.51,0,0,1-.2,1.42,3.16,3.16,0,0,1-.62,1.11,2.81,2.81,0,0,1-1,.72,3.9,3.9,0,0,1-1.47.25,4,4,0,0,1-1.41-.22,2.5,2.5,0,0,1-1-.66,2.68,2.68,0,0,1-.59-1.06,4.85,4.85,0,0,1-.19-1.43,4.62,4.62,0,0,1,.21-1.43,3,3,0,0,1,.62-1.11,2.91,2.91,0,0,1,1.05-.71,3.81,3.81,0,0,1,1.46-.25,4,4,0,0,1,1.42.22,2.48,2.48,0,0,1,1,.65,2.66,2.66,0,0,1,.58,1.06A4.88,4.88,0,0,1,136,94.62Zm-1.77.07a4.28,4.28,0,0,0-.07-.83,2.15,2.15,0,0,0-.24-.66,1.22,1.22,0,0,0-.46-.44,1.47,1.47,0,0,0-.71-.15,1.41,1.41,0,0,0-.67.14,1.16,1.16,0,0,0-.47.41,1.94,1.94,0,0,0-.28.65,3.72,3.72,0,0,0-.09.86,4.28,4.28,0,0,0,.07.83,2.16,2.16,0,0,0,.25.66,1.19,1.19,0,0,0,.45.44,1.52,1.52,0,0,0,.71.15,1.59,1.59,0,0,0,.68-.14,1.16,1.16,0,0,0,.47-.41,1.77,1.77,0,0,0,.27-.64A3.81,3.81,0,0,0,134.25,94.69Z" transform="translate(-73.61 -85.8)"/><path d="M143,95.94a2.12,2.12,0,0,1-.2.93,1.53,1.53,0,0,1-.59.65,2.81,2.81,0,0,1-1,.4,5.76,5.76,0,0,1-1.4.14h-.94l-.43,0L138,98a.64.64,0,0,1-.46-.2.73.73,0,0,1-.14-.49V92.05a.81.81,0,0,1,.13-.48.56.56,0,0,1,.4-.19l.39,0,.49,0h1.1a6.56,6.56,0,0,1,1.26.1,2.91,2.91,0,0,1,.88.31,1.34,1.34,0,0,1,.51.52,1.46,1.46,0,0,1,.17.71,1.39,1.39,0,0,1-.3.92,1.43,1.43,0,0,1-.85.5,1.88,1.88,0,0,1,1.06.53A1.48,1.48,0,0,1,143,95.94Zm-1.89-2.69a.88.88,0,0,0-.06-.33.6.6,0,0,0-.21-.24,1,1,0,0,0-.38-.15,2.42,2.42,0,0,0-.57,0h-.49l-.4,0v1.54h.92a1.56,1.56,0,0,0,.89-.21A.69.69,0,0,0,141.1,93.25Zm.18,2.69a.94.94,0,0,0-.07-.39.62.62,0,0,0-.24-.27,1.19,1.19,0,0,0-.44-.16,3,3,0,0,0-.64-.05H139v1.75l.23,0,.24,0h.46a2.77,2.77,0,0,0,.62-.06,1.32,1.32,0,0,0,.43-.19.7.7,0,0,0,.24-.3A.92.92,0,0,0,141.28,95.94Z" transform="translate(-73.61 -85.8)"/><path d="M150,97.8a.13.13,0,0,1,0,.09.26.26,0,0,1-.13.07l-.27,0-.42,0-.47,0-.29,0a.27.27,0,0,1-.16-.08.26.26,0,0,1-.07-.11l-.57-1.46a2.85,2.85,0,0,0-.22-.49,1.24,1.24,0,0,0-.27-.32.74.74,0,0,0-.33-.17,1.73,1.73,0,0,0-.42,0H146v2.49a.11.11,0,0,1-.05.09.35.35,0,0,1-.15.08,1.2,1.2,0,0,1-.26,0l-.4,0-.4,0a1.46,1.46,0,0,1-.27,0,.35.35,0,0,1-.15-.08.12.12,0,0,1,0-.09V91.59a.12.12,0,0,1,0-.09.35.35,0,0,1,.15-.07,1.46,1.46,0,0,1,.27-.05l.4,0,.4,0a1.2,1.2,0,0,1,.26.05.35.35,0,0,1,.15.07.11.11,0,0,1,.05.09V94h.35a1.46,1.46,0,0,0,.38,0,.87.87,0,0,0,.31-.18,1,1,0,0,0,.26-.31,3,3,0,0,0,.23-.5l.52-1.31a.34.34,0,0,1,.06-.12.53.53,0,0,1,.15-.08l.27,0,.47,0,.41,0a1.18,1.18,0,0,1,.25,0,.4.4,0,0,1,.13.06.16.16,0,0,1,0,.09,1.28,1.28,0,0,1,0,.17,2.51,2.51,0,0,1-.1.26l-.49,1.16a3,3,0,0,1-.3.59,2.34,2.34,0,0,1-.33.4,2,2,0,0,1-.66.4v0a3.54,3.54,0,0,1,.39.19,1.49,1.49,0,0,1,.35.27,2.27,2.27,0,0,1,.33.4,4.59,4.59,0,0,1,.3.59l.59,1.36.07.16a.76.76,0,0,1,0,.11.34.34,0,0,1,0,.09A.13.13,0,0,1,150,97.8Z" transform="translate(-73.61 -85.8)"/><path d="M157.3,97.75a.21.21,0,0,1,0,.12.3.3,0,0,1-.14.08,1.31,1.31,0,0,1-.25,0l-.41,0-.41,0a1.55,1.55,0,0,1-.28,0,.35.35,0,0,1-.15-.08.16.16,0,0,1,0-.12V95c0-.19,0-.39,0-.59a5.6,5.6,0,0,1,0-.6,6.65,6.65,0,0,1-.36.56l-.39.55-2.06,2.8-.11.12a.42.42,0,0,1-.14.09l-.22,0h-.33l-.4,0a1.18,1.18,0,0,1-.25,0,.32.32,0,0,1-.13-.08.28.28,0,0,1,0-.12V91.63a.21.21,0,0,1,0-.11.24.24,0,0,1,.14-.09,1.2,1.2,0,0,1,.26-.05l.4,0a2.57,2.57,0,0,1,.69.07c.13,0,.2.11.2.2v2.71c0,.18,0,.38,0,.58l-.06.58c.11-.18.22-.37.34-.55a6,6,0,0,1,.36-.52l2.08-2.8a.69.69,0,0,1,.11-.13.6.6,0,0,1,.16-.08l.22,0,.35,0,.39,0a1.18,1.18,0,0,1,.25,0,.29.29,0,0,1,.13.09.28.28,0,0,1,0,.13Z" transform="translate(-73.61 -85.8)"/><path d="M161.19,92.57a2,2,0,0,1-.05.47.74.74,0,0,1-.16.32.64.64,0,0,1-.3.17,1.54,1.54,0,0,1-.46,0,1.57,1.57,0,0,1-.47,0,.64.64,0,0,1-.3-.17.73.73,0,0,1-.15-.32,2.05,2.05,0,0,1,0-.47,2.41,2.41,0,0,1,0-.5.73.73,0,0,1,.15-.32.75.75,0,0,1,.3-.18,2,2,0,0,1,.47,0,2,2,0,0,1,.46,0,.75.75,0,0,1,.3.18.74.74,0,0,1,.16.32A2.34,2.34,0,0,1,161.19,92.57Zm0,4.46a2.14,2.14,0,0,1-.05.48.74.74,0,0,1-.16.32.64.64,0,0,1-.3.17,1.54,1.54,0,0,1-.46,0,1.57,1.57,0,0,1-.47,0,.64.64,0,0,1-.3-.17.73.73,0,0,1-.15-.32,2.21,2.21,0,0,1,0-.48,2.31,2.31,0,0,1,0-.49.73.73,0,0,1,.15-.32.65.65,0,0,1,.3-.18,2,2,0,0,1,.47-.05,2,2,0,0,1,.46.05.65.65,0,0,1,.3.18.74.74,0,0,1,.16.32A2.24,2.24,0,0,1,161.19,97Z" transform="translate(-73.61 -85.8)"/><path d="M77.94,127.42a.9.9,0,0,1,0,.18.25.25,0,0,1,0,.13.28.28,0,0,1-.06.08.15.15,0,0,1-.09,0H74.09a.4.4,0,0,1-.25-.09.37.37,0,0,1-.12-.32v-6.76a.38.38,0,0,1,.12-.32.4.4,0,0,1,.25-.09h3.6l.08,0a.27.27,0,0,1,.07.08l0,.13a1.12,1.12,0,0,1,0,.2.9.9,0,0,1,0,.18.86.86,0,0,1,0,.13.19.19,0,0,1-.07.08l-.08,0h-3v2.38h2.54l.08,0a.27.27,0,0,1,.07.08.33.33,0,0,1,0,.13s0,.12,0,.19,0,.13,0,.18a.34.34,0,0,1,0,.12.12.12,0,0,1-.07.07.11.11,0,0,1-.08,0H74.73V127h3a.15.15,0,0,1,.09,0,.22.22,0,0,1,.06.07.28.28,0,0,1,0,.13A1,1,0,0,1,77.94,127.42Z" transform="translate(-73.61 -85.8)"/><path d="M83,126.88a1,1,0,0,1,0,.18.37.37,0,0,1,0,.12l0,.09-.1.11a1.25,1.25,0,0,1-.25.18,1.77,1.77,0,0,1-.39.19,2.43,2.43,0,0,1-.48.14,2.32,2.32,0,0,1-.53,0,2.64,2.64,0,0,1-1-.18,2,2,0,0,1-.74-.55,2.76,2.76,0,0,1-.45-.89,4.35,4.35,0,0,1-.15-1.21,4.06,4.06,0,0,1,.19-1.33,2.55,2.55,0,0,1,.52-.92,2,2,0,0,1,.78-.53,2.57,2.57,0,0,1,1-.17,2.63,2.63,0,0,1,.49,0,2,2,0,0,1,.44.13,2.28,2.28,0,0,1,.35.17,2,2,0,0,1,.23.17l.09.11,0,.1a.51.51,0,0,1,0,.13s0,.1,0,.17a.62.62,0,0,1-.06.32.15.15,0,0,1-.13.09.31.31,0,0,1-.2-.1l-.29-.21a2.06,2.06,0,0,0-.42-.21,1.55,1.55,0,0,0-.59-.1,1.22,1.22,0,0,0-1.07.54,2.67,2.67,0,0,0-.37,1.55,4,4,0,0,0,.09.9,1.89,1.89,0,0,0,.29.64,1.12,1.12,0,0,0,.46.38,1.52,1.52,0,0,0,.62.13,1.55,1.55,0,0,0,.59-.11,2.86,2.86,0,0,0,.43-.23,2.27,2.27,0,0,0,.31-.23.36.36,0,0,1,.2-.1l.07,0a.16.16,0,0,1,0,.08l0,.14A1.27,1.27,0,0,1,83,126.88Z" transform="translate(-73.61 -85.8)"/><path d="M88.61,127.69a.24.24,0,0,1,0,.08.16.16,0,0,1-.08,0,.39.39,0,0,1-.14,0h-.48l-.15,0a.16.16,0,0,1-.08,0,.24.24,0,0,1,0-.08v-4.61H86.19c-.07.62-.14,1.18-.23,1.66a12,12,0,0,1-.3,1.27,4.55,4.55,0,0,1-.36.9,2.47,2.47,0,0,1-.45.6,1.4,1.4,0,0,1-.53.32,1.74,1.74,0,0,1-.61.1h-.09l-.06-.07a.35.35,0,0,1,0-.13,1.27,1.27,0,0,1,0-.22c0-.09,0-.17,0-.23s0-.1,0-.14,0-.06,0-.07l.08,0a.78.78,0,0,0,.37-.09.92.92,0,0,0,.33-.3,2.68,2.68,0,0,0,.29-.54,5.27,5.27,0,0,0,.24-.83c.08-.33.15-.71.22-1.15s.12-.95.18-1.52a.47.47,0,0,1,.09-.26.29.29,0,0,1,.21-.08h2.7a.29.29,0,0,1,.22.08.35.35,0,0,1,.08.26Z" transform="translate(-73.61 -85.8)"/><path d="M95.1,127.69a.11.11,0,0,1,0,.08.13.13,0,0,1-.07,0l-.15,0h-.47l-.15,0a.12.12,0,0,1-.08,0,.11.11,0,0,1,0-.08v-3c0-.15,0-.31,0-.47s0-.31,0-.46c-.09.15-.19.31-.3.46l-.32.44-2.24,3.06a.6.6,0,0,1-.08.08.12.12,0,0,1-.08.06l-.12,0h-.4a.33.33,0,0,1-.13,0,.1.1,0,0,1-.07,0,.11.11,0,0,1,0-.08v-5.28a.11.11,0,0,1,0-.08.14.14,0,0,1,.07-.06l.15,0h.23a1.1,1.1,0,0,1,.39,0,.13.13,0,0,1,.1.13v3c0,.15,0,.3,0,.45l0,.45.27-.43a3.19,3.19,0,0,1,.3-.42l2.27-3.1a.27.27,0,0,1,.07-.08.24.24,0,0,1,.09-.06l.14,0h.4l.14,0,.07.06a.19.19,0,0,1,0,.08Z" transform="translate(-73.61 -85.8)"/><path d="M107.43,127.69a.13.13,0,0,1,0,.08.13.13,0,0,1-.07,0l-.15,0h-.47a.39.39,0,0,1-.15,0,.12.12,0,0,1-.08,0,.13.13,0,0,1,0-.08v-3.21a3.86,3.86,0,0,0,0-.61,1.54,1.54,0,0,0-.19-.47,1,1,0,0,0-.33-.31,1,1,0,0,0-.47-.1,1.05,1.05,0,0,0-.67.26,4.78,4.78,0,0,0-.74.75v3.69a.24.24,0,0,1,0,.08l-.08,0-.15,0h-.47l-.15,0a.16.16,0,0,1-.08,0,.24.24,0,0,1,0-.08v-3.21a2.93,2.93,0,0,0-.06-.61,1.55,1.55,0,0,0-.2-.47.86.86,0,0,0-.32-.31,1,1,0,0,0-.47-.1,1.07,1.07,0,0,0-.67.26,4.38,4.38,0,0,0-.74.75v3.69a.24.24,0,0,1,0,.08.16.16,0,0,1-.08,0,.39.39,0,0,1-.15,0h-.47l-.15,0a.16.16,0,0,1-.08,0,.24.24,0,0,1,0-.08v-5.28a.24.24,0,0,1,0-.08.13.13,0,0,1,.07,0l.14,0h.43a.4.4,0,0,1,.13,0,.18.18,0,0,1,.07,0,.24.24,0,0,1,0,.08v.7a3.45,3.45,0,0,1,.86-.73,1.78,1.78,0,0,1,.85-.23,2.16,2.16,0,0,1,.59.08,1.75,1.75,0,0,1,.46.21,1.52,1.52,0,0,1,.34.33,2.13,2.13,0,0,1,.23.42,5.43,5.43,0,0,1,.5-.48,3.07,3.07,0,0,1,.46-.33,1.67,1.67,0,0,1,.43-.17,1.52,1.52,0,0,1,.42-.06,1.81,1.81,0,0,1,.85.18,1.54,1.54,0,0,1,.56.48,2.13,2.13,0,0,1,.31.7,3.8,3.8,0,0,1,.09.84Z" transform="translate(-73.61 -85.8)"/><path d="M116.43,123.32a.6.6,0,0,1-.07.32.21.21,0,0,1-.16.09h-4.43a.19.19,0,0,1-.15-.09.62.62,0,0,1-.06-.32.6.6,0,0,1,.06-.31.16.16,0,0,1,.15-.1h4.43a.19.19,0,0,1,.17.1A.6.6,0,0,1,116.43,123.32Zm0,2.28a.6.6,0,0,1-.07.32.21.21,0,0,1-.16.09h-4.43a.19.19,0,0,1-.15-.09.62.62,0,0,1-.06-.32.65.65,0,0,1,.06-.32.16.16,0,0,1,.15-.1h4.43a.19.19,0,0,1,.17.1A.65.65,0,0,1,116.43,125.6Z" transform="translate(-73.61 -85.8)"/><path d="M125.13,127.69a.12.12,0,0,1,0,.08.16.16,0,0,1-.08,0,.39.39,0,0,1-.14,0h-.48a.39.39,0,0,1-.14,0,.16.16,0,0,1-.08,0,.12.12,0,0,1,0-.08V124.6a3.53,3.53,0,0,0-.07-.73,1.56,1.56,0,0,0-.21-.47.88.88,0,0,0-.35-.31,1.1,1.1,0,0,0-.49-.1,1.21,1.21,0,0,0-.73.26,3.8,3.8,0,0,0-.76.75v3.69a.24.24,0,0,1,0,.08l-.08,0-.15,0h-.47l-.15,0a.16.16,0,0,1-.08,0,.24.24,0,0,1,0-.08v-5.28a.24.24,0,0,1,0-.08.13.13,0,0,1,.07,0l.13,0h.44a.4.4,0,0,1,.13,0,.1.1,0,0,1,.06,0,.13.13,0,0,1,0,.08v.7a3.34,3.34,0,0,1,.88-.73,2,2,0,0,1,.9-.23,1.94,1.94,0,0,1,.88.18,1.64,1.64,0,0,1,.59.48,2,2,0,0,1,.32.7,4.41,4.41,0,0,1,.09,1Z" transform="translate(-73.61 -85.8)"/><path d="M128.17,127c0,.12,0,.23,0,.33a1.36,1.36,0,0,1-.06.29,2,2,0,0,1-.11.26,3,3,0,0,1-.17.28l-.8,1.21a.23.23,0,0,1-.07.07.19.19,0,0,1-.09.05.28.28,0,0,1-.13,0h-.35a.13.13,0,0,1-.1,0,.05.05,0,0,1,0-.05.13.13,0,0,1,0-.08l.78-1.61V127a.93.93,0,0,1,0-.26.3.3,0,0,1,.1-.14.48.48,0,0,1,.18-.06l.26,0,.25,0a.38.38,0,0,1,.17.06.24.24,0,0,1,.1.14A.93.93,0,0,1,128.17,127Z" transform="translate(-73.61 -85.8)"/><path d="M136.3,122.7a1,1,0,0,1,0,.2.42.42,0,0,1,0,.13s0,.07-.07.08a.11.11,0,0,1-.08,0h-1.59v4.55a.12.12,0,0,1,0,.08.12.12,0,0,1-.08,0,.39.39,0,0,1-.14,0h-.48l-.15,0a.13.13,0,0,1-.07,0,.12.12,0,0,1,0-.08v-4.55H132a.14.14,0,0,1-.09,0,.1.1,0,0,1-.06-.08.4.4,0,0,1,0-.13,1.34,1.34,0,0,1,0-.21,1,1,0,0,1,0-.18.47.47,0,0,1,0-.14.28.28,0,0,1,.06-.08.14.14,0,0,1,.09,0h4.13a.11.11,0,0,1,.08,0,.12.12,0,0,1,.06.08.47.47,0,0,1,0,.14A1.11,1.11,0,0,1,136.3,122.7Z" transform="translate(-73.61 -85.8)"/><path d="M142,125a4.07,4.07,0,0,1-.17,1.19,2.47,2.47,0,0,1-.51.93,2.3,2.3,0,0,1-.84.62,3.07,3.07,0,0,1-1.18.21,3,3,0,0,1-1.13-.19,2,2,0,0,1-.8-.56,2.45,2.45,0,0,1-.49-.9,4.35,4.35,0,0,1-.15-1.19,4.08,4.08,0,0,1,.16-1.19,2.47,2.47,0,0,1,.51-.93,2.08,2.08,0,0,1,.84-.61,2.86,2.86,0,0,1,1.18-.22,3,3,0,0,1,1.13.19,2.13,2.13,0,0,1,.81.57,2.45,2.45,0,0,1,.48.89A4,4,0,0,1,142,125Zm-1,.07a4.12,4.12,0,0,0-.08-.81,2.13,2.13,0,0,0-.26-.67,1.36,1.36,0,0,0-.5-.45,1.55,1.55,0,0,0-.78-.17,1.65,1.65,0,0,0-.74.15,1.45,1.45,0,0,0-.52.43,2,2,0,0,0-.29.66,3.1,3.1,0,0,0-.1.83,3.62,3.62,0,0,0,.08.82,1.94,1.94,0,0,0,.26.66,1.44,1.44,0,0,0,.5.45,1.67,1.67,0,0,0,.78.17,1.68,1.68,0,0,0,.74-.15,1.45,1.45,0,0,0,.52-.43,1.81,1.81,0,0,0,.29-.66A3.1,3.1,0,0,0,141,125.06Z" transform="translate(-73.61 -85.8)"/><path d="M149.85,122.7c0,.08,0,.15,0,.2a.4.4,0,0,1,0,.13.18.18,0,0,1-.06.08.16.16,0,0,1-.09,0h-1.58v4.55a.13.13,0,0,1,0,.08.13.13,0,0,1-.07,0l-.15,0h-.47a.39.39,0,0,1-.15,0,.12.12,0,0,1-.08,0,.24.24,0,0,1,0-.08v-4.55h-1.58a.16.16,0,0,1-.09,0,.18.18,0,0,1-.06-.08,1,1,0,0,1,0-.13,1.34,1.34,0,0,1,0-.21,1,1,0,0,1,0-.18,1.27,1.27,0,0,1,0-.14.19.19,0,0,1,.07-.08.11.11,0,0,1,.08,0h4.13a.11.11,0,0,1,.08,0,.19.19,0,0,1,.07.08s0,.08,0,.14A1.11,1.11,0,0,1,149.85,122.7Z" transform="translate(-73.61 -85.8)"/><path d="M154.78,127.69a.14.14,0,0,1-.05.11l-.13,0-.24,0-.24,0a.38.38,0,0,1-.14,0,.18.18,0,0,1,0-.11v-.52a2.66,2.66,0,0,1-.77.57,2,2,0,0,1-.9.2,2.57,2.57,0,0,1-.75-.1,1.66,1.66,0,0,1-.57-.32,1.34,1.34,0,0,1-.37-.5,1.65,1.65,0,0,1-.13-.68,1.54,1.54,0,0,1,.18-.77,1.51,1.51,0,0,1,.52-.55,2.61,2.61,0,0,1,.83-.32,4.75,4.75,0,0,1,1.11-.11h.72v-.41a2.12,2.12,0,0,0-.06-.54.82.82,0,0,0-.21-.39,1,1,0,0,0-.37-.24,1.82,1.82,0,0,0-.56-.07,2.12,2.12,0,0,0-.64.08,3.51,3.51,0,0,0-.5.19l-.36.19a.56.56,0,0,1-.21.08l-.09,0-.06-.07a.53.53,0,0,1,0-.12.88.88,0,0,1,0-.17,1.4,1.4,0,0,1,0-.23.47.47,0,0,1,.1-.16,1.72,1.72,0,0,1,.28-.18,3.08,3.08,0,0,1,.44-.18,3,3,0,0,1,.55-.14,3.08,3.08,0,0,1,.61-.06,3,3,0,0,1,1,.13,1.5,1.5,0,0,1,.65.38,1.42,1.42,0,0,1,.35.61,2.86,2.86,0,0,1,.12.87Zm-1-2.41H153a3.34,3.34,0,0,0-.69.07,1.48,1.48,0,0,0-.49.2.78.78,0,0,0-.28.32.93.93,0,0,0-.09.42.85.85,0,0,0,.26.66,1,1,0,0,0,.73.24,1.41,1.41,0,0,0,.7-.19,2.79,2.79,0,0,0,.68-.6Z" transform="translate(-73.61 -85.8)"/><path d="M160.85,127.73a.07.07,0,0,1,0,.06s0,0-.07,0a.57.57,0,0,1-.15,0h-.5l-.17,0a.19.19,0,0,1-.09,0,.16.16,0,0,1,0-.07l-.56-1.37a3.14,3.14,0,0,0-.23-.45,1.05,1.05,0,0,0-.28-.31,1,1,0,0,0-.35-.17,2.16,2.16,0,0,0-.46-.05h-.41v2.37a.09.09,0,0,1,0,.06.19.19,0,0,1-.09,0l-.15,0h-.44l-.15,0a.16.16,0,0,1-.08,0,.09.09,0,0,1,0-.06v-5.35a.09.09,0,0,1,0-.06.15.15,0,0,1,.08,0l.15,0h.44l.15,0a.19.19,0,0,1,.09,0,.09.09,0,0,1,0,.06v2.21h.41a1.77,1.77,0,0,0,.41,0,1,1,0,0,0,.33-.17,1.08,1.08,0,0,0,.27-.29,2.26,2.26,0,0,0,.22-.44l.5-1.22a.12.12,0,0,1,0-.08l.09-.06.15,0h.49l.14,0,.07,0a.13.13,0,0,1,0,.06.45.45,0,0,1,0,.11,1.12,1.12,0,0,1,0,.13l-.5,1.16a2.91,2.91,0,0,1-.25.5,3.41,3.41,0,0,1-.28.33,1.68,1.68,0,0,1-.29.2l-.28.12h0a1.63,1.63,0,0,1,.38.17,1.78,1.78,0,0,1,.32.24,2.53,2.53,0,0,1,.28.35,5.09,5.09,0,0,1,.24.47l.58,1.33,0,.08a.19.19,0,0,1,0,.07v.09Z" transform="translate(-73.61 -85.8)"/><path d="M166.81,127.69a.19.19,0,0,1,0,.08.16.16,0,0,1-.08,0,.39.39,0,0,1-.15,0h-.46a.53.53,0,0,1-.16,0,.16.16,0,0,1-.08,0,.19.19,0,0,1,0-.08v-3c0-.15,0-.31,0-.47l0-.46c-.09.15-.19.31-.3.46s-.21.3-.32.44L163,127.69l-.07.08a.15.15,0,0,1-.09.06l-.12,0h-.4a.4.4,0,0,1-.13,0,.13.13,0,0,1-.07,0,.11.11,0,0,1,0-.08v-5.28a.11.11,0,0,1,0-.08.22.22,0,0,1,.07-.06l.15,0h.23a1.1,1.1,0,0,1,.39,0,.13.13,0,0,1,.1.13v3c0,.15,0,.3,0,.45s0,.3,0,.45c.09-.15.18-.29.28-.43a4.43,4.43,0,0,1,.29-.42l2.27-3.1.07-.08a.21.21,0,0,1,.1-.06l.13,0h.41l.13,0a.22.22,0,0,1,.07.06.19.19,0,0,1,0,.08Z" transform="translate(-73.61 -85.8)"/><path d="M173.1,124.82a.35.35,0,0,1-.37.42h-3.48a3.12,3.12,0,0,0,.09.79,1.52,1.52,0,0,0,.3.61,1.15,1.15,0,0,0,.53.38,2.14,2.14,0,0,0,.81.14,3.4,3.4,0,0,0,.67-.06,3.63,3.63,0,0,0,.51-.14l.35-.14a.69.69,0,0,1,.21-.06l.08,0,0,.06a.37.37,0,0,1,0,.12,1,1,0,0,1,0,.18v.13s0,.07,0,.1a.26.26,0,0,1,0,.08l-.05.06a.66.66,0,0,1-.19.11,2.16,2.16,0,0,1-.41.14,5.68,5.68,0,0,1-.58.13,4.09,4.09,0,0,1-.71,0,3.33,3.33,0,0,1-1.14-.18,2,2,0,0,1-.82-.54,2.22,2.22,0,0,1-.51-.89,4.32,4.32,0,0,1-.17-1.26,3.86,3.86,0,0,1,.18-1.22,2.49,2.49,0,0,1,.51-.92,2.28,2.28,0,0,1,.79-.58,2.77,2.77,0,0,1,1.05-.2,2.57,2.57,0,0,1,1.06.2,2,2,0,0,1,.72.54,2.05,2.05,0,0,1,.41.79,3.35,3.35,0,0,1,.13,1Zm-1-.29a1.76,1.76,0,0,0-.34-1.19,1.29,1.29,0,0,0-1.06-.43,1.39,1.39,0,0,0-.63.13,1.33,1.33,0,0,0-.45.36,1.53,1.53,0,0,0-.28.52,2.07,2.07,0,0,0-.12.61Z" transform="translate(-73.61 -85.8)"/><path d="M182.14,125a4.73,4.73,0,0,1-.15,1.24,2.82,2.82,0,0,1-.44.94,2,2,0,0,1-.72.59,2.17,2.17,0,0,1-1,.2,2,2,0,0,1-.43,0,1.56,1.56,0,0,1-.39-.15,2.07,2.07,0,0,1-.38-.25l-.4-.36v2.64a.11.11,0,0,1,0,.08.18.18,0,0,1-.08.06.26.26,0,0,1-.14,0l-.24,0-.24,0a.33.33,0,0,1-.15,0,.22.22,0,0,1-.07-.06.11.11,0,0,1,0-.08v-7.37a.11.11,0,0,1,0-.08.14.14,0,0,1,.07-.06l.13,0h.4l.13,0a.28.28,0,0,1,.08.06.19.19,0,0,1,0,.08v.71c.16-.16.31-.3.46-.43a2.93,2.93,0,0,1,.45-.3,2,2,0,0,1,.46-.18,2.07,2.07,0,0,1,.5-.06,2,2,0,0,1,1,.22,1.84,1.84,0,0,1,.66.61,2.8,2.8,0,0,1,.37.9A4.79,4.79,0,0,1,182.14,125Zm-1,.11a4.93,4.93,0,0,0-.06-.78,2.51,2.51,0,0,0-.22-.67,1.16,1.16,0,0,0-.4-.47,1.07,1.07,0,0,0-.63-.18,1.15,1.15,0,0,0-.37.06,1.12,1.12,0,0,0-.37.17,2.66,2.66,0,0,0-.4.32,5.46,5.46,0,0,0-.44.48v2.1a3.74,3.74,0,0,0,.77.74,1.2,1.2,0,0,0,.75.26,1.19,1.19,0,0,0,.63-.17,1.47,1.47,0,0,0,.42-.47,2.36,2.36,0,0,0,.24-.66A3.55,3.55,0,0,0,181.14,125.08Z" transform="translate(-73.61 -85.8)"/><path d="M187.56,127.69a.14.14,0,0,1,0,.11l-.13,0-.24,0-.24,0a.38.38,0,0,1-.14,0,.18.18,0,0,1,0-.11v-.52a2.66,2.66,0,0,1-.77.57,2,2,0,0,1-.9.2,2.52,2.52,0,0,1-.75-.1,1.66,1.66,0,0,1-.57-.32,1.24,1.24,0,0,1-.37-.5,1.65,1.65,0,0,1-.14-.68,1.54,1.54,0,0,1,.19-.77,1.51,1.51,0,0,1,.52-.55,2.52,2.52,0,0,1,.83-.32,4.75,4.75,0,0,1,1.11-.11h.72v-.41a2.12,2.12,0,0,0-.06-.54.82.82,0,0,0-.21-.39A1,1,0,0,0,186,123a1.82,1.82,0,0,0-.56-.07,2.08,2.08,0,0,0-.64.08,3.51,3.51,0,0,0-.5.19l-.36.19a.63.63,0,0,1-.21.08l-.09,0-.06-.07a.56.56,0,0,1,0-.12s0-.11,0-.17a1.4,1.4,0,0,1,0-.23.47.47,0,0,1,.1-.16,1.72,1.72,0,0,1,.28-.18,2.67,2.67,0,0,1,.44-.18,3,3,0,0,1,.55-.14,3.4,3.4,0,0,1,1.57.07,1.5,1.5,0,0,1,.65.38,1.42,1.42,0,0,1,.35.61,2.87,2.87,0,0,1,.11.87Zm-1-2.41h-.82a3.34,3.34,0,0,0-.69.07,1.48,1.48,0,0,0-.49.2.78.78,0,0,0-.28.32.93.93,0,0,0-.09.42.85.85,0,0,0,.26.66,1,1,0,0,0,.73.24,1.44,1.44,0,0,0,.7-.19,2.79,2.79,0,0,0,.68-.6Z" transform="translate(-73.61 -85.8)"/><path d="M193,126.23a1.51,1.51,0,0,1-.16.71,1.45,1.45,0,0,1-.45.54,2,2,0,0,1-.73.35,3.55,3.55,0,0,1-1,.11,3.48,3.48,0,0,1-.57,0c-.18,0-.34-.07-.49-.11a1.77,1.77,0,0,1-.36-.15,1.27,1.27,0,0,1-.22-.13.41.41,0,0,1-.09-.1.25.25,0,0,1,0-.09s0-.08,0-.13,0-.11,0-.18a.63.63,0,0,1,0-.16.36.36,0,0,1,0-.11l.05-.06a.08.08,0,0,1,.06,0,.42.42,0,0,1,.18.08l.31.18a3.91,3.91,0,0,0,.47.18,2.81,2.81,0,0,0,.7.08,2.15,2.15,0,0,0,.53-.06,1.35,1.35,0,0,0,.4-.19.81.81,0,0,0,.25-.3.82.82,0,0,0,.1-.42.72.72,0,0,0-.37-.65,1.86,1.86,0,0,0-.48-.18,3.55,3.55,0,0,0-.71-.06h-.58l-.1,0a.22.22,0,0,1-.06-.07.16.16,0,0,1,0-.11,1,1,0,0,1,0-.18.67.67,0,0,1,0-.27l.06-.06a.15.15,0,0,1,.09,0h.57a2.8,2.8,0,0,0,.63-.06,1.57,1.57,0,0,0,.45-.17.66.66,0,0,0,.26-.29.76.76,0,0,0,.09-.38.74.74,0,0,0-.08-.34.73.73,0,0,0-.22-.24.88.88,0,0,0-.34-.15,2,2,0,0,0-.43,0,2.35,2.35,0,0,0-.63.08,4.13,4.13,0,0,0-.48.18l-.33.18a.51.51,0,0,1-.19.08l-.05,0a.08.08,0,0,1,0,0,.81.81,0,0,1,0-.11s0-.09,0-.16a1,1,0,0,1,0-.27.42.42,0,0,1,.1-.17,1,1,0,0,1,.24-.16,2.81,2.81,0,0,1,.42-.17,3.47,3.47,0,0,1,.51-.12,3.66,3.66,0,0,1,.57,0,3.24,3.24,0,0,1,.79.09,1.63,1.63,0,0,1,.61.28,1.33,1.33,0,0,1,.4.45,1.44,1.44,0,0,1,.14.64,1.41,1.41,0,0,1-.07.41,1.31,1.31,0,0,1-.21.36,1.32,1.32,0,0,1-.32.3,1.52,1.52,0,0,1-.43.19h0a1.53,1.53,0,0,1,.45.13,1.6,1.6,0,0,1,.4.28,1.42,1.42,0,0,1,.28.41A1.32,1.32,0,0,1,193,126.23Z" transform="translate(-73.61 -85.8)"/><path d="M201.07,127.63a.18.18,0,0,1-.08.19.91.91,0,0,1-.36.05h-.24l-.14,0a.16.16,0,0,1-.08,0,.2.2,0,0,1,0-.09l-.38-3.07c0-.11,0-.23,0-.35l0-.38c0-.13,0-.26,0-.39s0-.25,0-.36V123a3.07,3.07,0,0,0-.11.36c0,.12-.09.25-.13.38s-.09.26-.13.39-.08.25-.11.36L198,127.62a.67.67,0,0,1-.06.12.3.3,0,0,1-.08.08l-.15,0h-.41l-.14,0-.09-.07a1.34,1.34,0,0,1-.06-.12L196,124.5l-.12-.35c0-.13-.08-.25-.13-.39l-.12-.39c0-.12-.07-.25-.1-.36v.14c0,.11,0,.23,0,.36l0,.39c0,.12,0,.25,0,.38l0,.35-.36,3a.21.21,0,0,1,0,.12.1.1,0,0,1-.08.06l-.15,0h-.48a.28.28,0,0,1-.12,0,.16.16,0,0,1-.06-.08.2.2,0,0,1,0-.11l.58-5a.46.46,0,0,1,.13-.28.41.41,0,0,1,.31-.1h.46a1.17,1.17,0,0,1,.29,0,.67.67,0,0,1,.21.09.61.61,0,0,1,.14.17,1.16,1.16,0,0,1,.11.27l.78,2.25c0,.13.09.27.14.41s.09.28.13.41.08.27.11.4.08.25.11.37h0c0-.13.07-.25.11-.39a3.71,3.71,0,0,1,.12-.41c0-.14.08-.27.13-.41s.09-.27.13-.39l.78-2.24c0-.09.07-.18.1-.25a.86.86,0,0,1,.14-.18.63.63,0,0,1,.2-.1,1.09,1.09,0,0,1,.28,0H200a.49.49,0,0,1,.32.09.39.39,0,0,1,.13.28Z" transform="translate(-73.61 -85.8)"/><path d="M207,124.82a.45.45,0,0,1-.11.33.44.44,0,0,1-.27.09h-3.47a3.12,3.12,0,0,0,.09.79,1.65,1.65,0,0,0,.29.61,1.24,1.24,0,0,0,.54.38,2.14,2.14,0,0,0,.81.14,3.4,3.4,0,0,0,.67-.06,4.6,4.6,0,0,0,.51-.14l.35-.14a.57.57,0,0,1,.21-.06l.07,0,.05.06,0,.12c0,.05,0,.11,0,.18a.53.53,0,0,1,0,.13s0,.07,0,.1l0,.08-.06.06a.53.53,0,0,1-.19.11,1.93,1.93,0,0,1-.41.14,5.13,5.13,0,0,1-.58.13,4,4,0,0,1-.71,0,3.23,3.23,0,0,1-1.13-.18,2.06,2.06,0,0,1-.83-.54,2.2,2.2,0,0,1-.5-.89,4,4,0,0,1-.17-1.26,4.18,4.18,0,0,1,.17-1.22,2.64,2.64,0,0,1,.51-.92,2.32,2.32,0,0,1,.8-.58,2.69,2.69,0,0,1,1.05-.2,2.6,2.6,0,0,1,1.06.2,1.84,1.84,0,0,1,.71.54,2.07,2.07,0,0,1,.42.79,3.35,3.35,0,0,1,.13,1Zm-1-.29a1.76,1.76,0,0,0-.34-1.19,1.29,1.29,0,0,0-1.06-.43,1.39,1.39,0,0,0-.63.13,1.33,1.33,0,0,0-.45.36,1.55,1.55,0,0,0-.29.52,2.44,2.44,0,0,0-.11.61Z" transform="translate(-73.61 -85.8)"/><path d="M216.4,129.63a.07.07,0,0,1,0,.06l-.07,0-.12,0h-.37l-.13,0s-.06,0-.07,0,0,0,0-.05v-1.8h-6.79a.28.28,0,0,1-.23-.08.38.38,0,0,1-.08-.26v-5.08a.24.24,0,0,1,0-.08.12.12,0,0,1,.08,0l.15,0h.47l.15,0a.13.13,0,0,1,.07,0,.13.13,0,0,1,0,.08V127h2v-4.59a.24.24,0,0,1,0-.08.13.13,0,0,1,.07,0l.15,0h.46a.39.39,0,0,1,.14,0,.16.16,0,0,1,.08,0,.12.12,0,0,1,0,.08V127h2v-4.59a.24.24,0,0,1,0-.08.16.16,0,0,1,.08,0l.15,0h.47l.15,0,.08,0a.24.24,0,0,1,0,.08V127h.71a.34.34,0,0,1,.2,0,.22.22,0,0,1,0,.19Z" transform="translate(-73.61 -85.8)"/><path d="M221.88,124.82a.42.42,0,0,1-.12.33.39.39,0,0,1-.26.09H218a3.12,3.12,0,0,0,.09.79,1.39,1.39,0,0,0,.29.61,1.24,1.24,0,0,0,.54.38,2.12,2.12,0,0,0,.8.14,3.33,3.33,0,0,0,.67-.06,3.63,3.63,0,0,0,.51-.14l.36-.14a.57.57,0,0,1,.21-.06l.07,0,.05.06,0,.12v.31a.3.3,0,0,1,0,.1.13.13,0,0,1,0,.08l0,.06a.53.53,0,0,1-.19.11,1.93,1.93,0,0,1-.41.14,5.68,5.68,0,0,1-.58.13,4,4,0,0,1-.71,0,3.33,3.33,0,0,1-1.14-.18,2.1,2.1,0,0,1-.82-.54,2.2,2.2,0,0,1-.5-.89,4,4,0,0,1-.17-1.26,3.87,3.87,0,0,1,.17-1.22,2.64,2.64,0,0,1,.51-.92,2.32,2.32,0,0,1,.8-.58,2.69,2.69,0,0,1,1.05-.2,2.55,2.55,0,0,1,1.05.2,1.8,1.8,0,0,1,.72.54,2.07,2.07,0,0,1,.42.79,3.73,3.73,0,0,1,.13,1Zm-1-.29a1.76,1.76,0,0,0-.33-1.19,1.29,1.29,0,0,0-1.06-.43,1.39,1.39,0,0,0-.63.13,1.37,1.37,0,0,0-.46.36,1.73,1.73,0,0,0-.28.52,2.06,2.06,0,0,0-.11.61Z" transform="translate(-73.61 -85.8)"/><path d="M228,127.69a.24.24,0,0,1,0,.08.16.16,0,0,1-.08,0,.39.39,0,0,1-.14,0h-.48l-.15,0a.13.13,0,0,1-.07,0,.13.13,0,0,1,0-.08v-2.32h-2.69v2.32a.12.12,0,0,1,0,.08.13.13,0,0,1-.07,0l-.15,0h-.48l-.15,0a.13.13,0,0,1-.07,0,.12.12,0,0,1,0-.08v-5.28a.12.12,0,0,1,0-.08.13.13,0,0,1,.07,0l.15,0h.48l.15,0a.13.13,0,0,1,.07,0,.12.12,0,0,1,0,.08v2.15H227v-2.15a.13.13,0,0,1,0-.08.13.13,0,0,1,.07,0l.15,0h.48a.39.39,0,0,1,.14,0,.16.16,0,0,1,.08,0,.24.24,0,0,1,0,.08Z" transform="translate(-73.61 -85.8)"/><path d="M234.46,127.69a.11.11,0,0,1,0,.08.13.13,0,0,1-.07,0l-.15,0h-.47l-.15,0a.12.12,0,0,1-.08,0,.11.11,0,0,1,0-.08v-3c0-.15,0-.31,0-.47a3.44,3.44,0,0,1,0-.46c-.09.15-.19.31-.3.46l-.33.44-2.23,3.06-.08.08a.16.16,0,0,1-.08.06l-.12,0H230l-.14,0a.18.18,0,0,1-.07,0,.19.19,0,0,1,0-.08v-5.28a.19.19,0,0,1,0-.08.28.28,0,0,1,.08-.06l.15,0h.23a1.1,1.1,0,0,1,.39,0,.13.13,0,0,1,.1.13v3c0,.15,0,.3,0,.45l0,.45.27-.43a3.19,3.19,0,0,1,.3-.42l2.27-3.1a.27.27,0,0,1,.07-.08.18.18,0,0,1,.09-.06l.13,0h.41l.14,0,.07.06a.19.19,0,0,1,0,.08Z" transform="translate(-73.61 -85.8)"/><path d="M240.15,127.69a.19.19,0,0,1,0,.08.16.16,0,0,1-.08,0,.39.39,0,0,1-.14,0h-.48a.39.39,0,0,1-.15,0,.12.12,0,0,1-.08,0,.19.19,0,0,1,0-.08v-2.22h-.56a2.61,2.61,0,0,0-.56,0,1,1,0,0,0-.37.2,1.74,1.74,0,0,0-.29.35,4.54,4.54,0,0,0-.24.53l-.43,1a.67.67,0,0,1-.06.12.21.21,0,0,1-.11.07.61.61,0,0,1-.17,0h-.45l-.14,0a.19.19,0,0,1-.09,0,.13.13,0,0,1,0-.08.58.58,0,0,1,0-.14l.14-.31.42-1a2.4,2.4,0,0,1,.4-.64,1.5,1.5,0,0,1,.55-.4,1.62,1.62,0,0,1-.9-.46,1.25,1.25,0,0,1-.34-.92,1.46,1.46,0,0,1,.16-.69,1.42,1.42,0,0,1,.46-.52,2.53,2.53,0,0,1,.76-.33,4,4,0,0,1,1-.11h.32l.39,0,.38,0,.32,0a.38.38,0,0,1,.26.13.45.45,0,0,1,.09.28Zm-1-4.71a3,3,0,0,0-.43,0h-.41a2.55,2.55,0,0,0-.67.07,1.14,1.14,0,0,0-.43.19.65.65,0,0,0-.22.3.87.87,0,0,0-.07.37.79.79,0,0,0,.08.38.71.71,0,0,0,.24.28,1.2,1.2,0,0,0,.41.18,3.18,3.18,0,0,0,.7.06h.8Z" transform="translate(-73.61 -85.8)"/><path d="M78.23,142.09a.24.24,0,0,1,0,.08l-.08.05-.15,0h-.47l-.15,0a.13.13,0,0,1-.07-.05.13.13,0,0,1,0-.08v-2.32H74.57v2.32a.24.24,0,0,1,0,.08.16.16,0,0,1-.08.05.39.39,0,0,1-.14,0h-.48l-.15,0a.13.13,0,0,1-.07-.05.12.12,0,0,1,0-.08v-5.28a.12.12,0,0,1,0-.08.13.13,0,0,1,.07,0l.15,0h.48a.39.39,0,0,1,.14,0,.16.16,0,0,1,.08,0,.24.24,0,0,1,0,.08V139h2.69v-2.15a.13.13,0,0,1,0-.08.13.13,0,0,1,.07,0l.15,0H78l.15,0,.08,0a.24.24,0,0,1,0,.08Z" transform="translate(-73.61 -85.8)"/><path d="M84,142.09a.14.14,0,0,1,0,.11l-.13.05-.24,0-.24,0a.32.32,0,0,1-.14-.05.18.18,0,0,1,0-.11v-.52a2.66,2.66,0,0,1-.77.57,2,2,0,0,1-.9.2,2.52,2.52,0,0,1-.75-.1,1.66,1.66,0,0,1-.57-.32,1.24,1.24,0,0,1-.37-.5,1.65,1.65,0,0,1-.14-.68,1.54,1.54,0,0,1,.19-.77,1.51,1.51,0,0,1,.52-.55,2.52,2.52,0,0,1,.83-.32,4.75,4.75,0,0,1,1.11-.11H83v-.41A2.12,2.12,0,0,0,83,138a.82.82,0,0,0-.21-.39.88.88,0,0,0-.37-.24,1.79,1.79,0,0,0-.56-.08,2.06,2.06,0,0,0-.64.09,3.51,3.51,0,0,0-.5.19l-.36.18a.52.52,0,0,1-.21.09l-.09,0-.06-.07a.56.56,0,0,1,0-.12s0-.11,0-.17a1.4,1.4,0,0,1,0-.23.47.47,0,0,1,.1-.16,2.07,2.07,0,0,1,.27-.18,3.24,3.24,0,0,1,.45-.18,3,3,0,0,1,.55-.14,3.4,3.4,0,0,1,1.57.07,1.5,1.5,0,0,1,.65.38,1.42,1.42,0,0,1,.35.61,2.87,2.87,0,0,1,.11.87Zm-1-2.41h-.82a3.34,3.34,0,0,0-.69.07,1.48,1.48,0,0,0-.49.2.78.78,0,0,0-.28.32.93.93,0,0,0-.1.42.85.85,0,0,0,.27.66,1,1,0,0,0,.73.24,1.44,1.44,0,0,0,.7-.19,2.79,2.79,0,0,0,.68-.6Z" transform="translate(-73.61 -85.8)"/><path d="M89.42,140.63a1.51,1.51,0,0,1-.16.71,1.45,1.45,0,0,1-.45.54,2,2,0,0,1-.73.35,3.55,3.55,0,0,1-1,.11,3.48,3.48,0,0,1-.57,0c-.18,0-.34-.07-.49-.11a1.77,1.77,0,0,1-.36-.15,1.27,1.27,0,0,1-.22-.13.41.41,0,0,1-.09-.1.25.25,0,0,1,0-.09s0-.08,0-.13,0-.11,0-.18,0-.12,0-.16l0-.11.05-.06.06,0a.42.42,0,0,1,.18.08l.31.18a3.35,3.35,0,0,0,.47.18,2.81,2.81,0,0,0,.7.08,2.15,2.15,0,0,0,.53-.06,1.35,1.35,0,0,0,.4-.19.81.81,0,0,0,.25-.3.93.93,0,0,0,.1-.42A.72.72,0,0,0,88,140a1.86,1.86,0,0,0-.48-.18,3.55,3.55,0,0,0-.71-.06h-.58l-.1,0a.22.22,0,0,1-.06-.07.16.16,0,0,1,0-.11,1,1,0,0,1,0-.18.67.67,0,0,1,0-.27l.06-.06a.15.15,0,0,1,.09,0h.57a2.86,2.86,0,0,0,.63-.06,1.57,1.57,0,0,0,.45-.17.66.66,0,0,0,.26-.29.76.76,0,0,0,.09-.38.74.74,0,0,0-.08-.34.73.73,0,0,0-.22-.24,1,1,0,0,0-.34-.15,2,2,0,0,0-.43-.05,2.35,2.35,0,0,0-.63.08,4.13,4.13,0,0,0-.48.18l-.34.18a.42.42,0,0,1-.18.08l0,0a.08.08,0,0,1,0-.05.81.81,0,0,1,0-.11s0-.09,0-.16a1,1,0,0,1,0-.27.42.42,0,0,1,.1-.17,1,1,0,0,1,.24-.16,3.17,3.17,0,0,1,.41-.17,3.62,3.62,0,0,1,.52-.12,3.66,3.66,0,0,1,.57,0,3.24,3.24,0,0,1,.79.09,1.63,1.63,0,0,1,.61.28,1.2,1.2,0,0,1,.39.45,1.32,1.32,0,0,1,.15.64,1.41,1.41,0,0,1-.07.41,1.31,1.31,0,0,1-.21.36,1.35,1.35,0,0,1-.75.49h0a1.53,1.53,0,0,1,.45.13,1.6,1.6,0,0,1,.4.28,1.42,1.42,0,0,1,.28.41A1.32,1.32,0,0,1,89.42,140.63Z" transform="translate(-73.61 -85.8)"/><path d="M91.81,138.67l.44,0h.48a4.21,4.21,0,0,1,1.07.12,2.26,2.26,0,0,1,.73.36,1.37,1.37,0,0,1,.43.56,1.9,1.9,0,0,1,.13.73,2.14,2.14,0,0,1-.14.76,1.76,1.76,0,0,1-.45.61,2.34,2.34,0,0,1-.79.4,3.91,3.91,0,0,1-1.15.15h-.63l-.3,0-.31,0a.55.55,0,0,1-.36-.16.57.57,0,0,1-.12-.39v-4.91a.24.24,0,0,1,0-.08.16.16,0,0,1,.08,0l.15,0h.22a1.1,1.1,0,0,1,.39.05c.07,0,.11.07.11.13Zm2.27,1.81A1.23,1.23,0,0,0,94,140a.78.78,0,0,0-.24-.33,1.07,1.07,0,0,0-.44-.22,3.16,3.16,0,0,0-.68-.07h-.44l-.4,0v2l.41,0,.48,0a1.59,1.59,0,0,0,1-.29A1,1,0,0,0,94.08,140.48Zm3,1.61a.12.12,0,0,1,0,.08.16.16,0,0,1-.08.05.39.39,0,0,1-.14,0h-.48l-.15,0a.13.13,0,0,1-.07-.05.12.12,0,0,1,0-.08v-5.28a.12.12,0,0,1,0-.08.13.13,0,0,1,.07,0l.15,0h.48a.39.39,0,0,1,.14,0,.16.16,0,0,1,.08,0,.12.12,0,0,1,0,.08Z" transform="translate(-73.61 -85.8)"/><path d="M103.17,140.57a1.75,1.75,0,0,1-.16.74,1.46,1.46,0,0,1-.47.55,2.59,2.59,0,0,1-.77.33,4.38,4.38,0,0,1-1.08.11H100l-.34,0-.33,0a.47.47,0,0,1-.45-.53v-4.54a.58.58,0,0,1,.1-.37.57.57,0,0,1,.34-.15l.32,0,.36,0,.37,0h.39a4.78,4.78,0,0,1,1,.09,2.31,2.31,0,0,1,.69.28,1.22,1.22,0,0,1,.41.44,1.48,1.48,0,0,1,.13.61,1.23,1.23,0,0,1-.24.76,1.3,1.3,0,0,1-.7.45,1.47,1.47,0,0,1,.87.47A1.33,1.33,0,0,1,103.17,140.57ZM102,138.12a.81.81,0,0,0-.07-.35.61.61,0,0,0-.23-.25,1.15,1.15,0,0,0-.42-.16,2.77,2.77,0,0,0-.62-.05h-.5l-.39,0V139h1a1.58,1.58,0,0,0,.92-.22A.76.76,0,0,0,102,138.12Zm.18,2.47a.93.93,0,0,0-.09-.42.66.66,0,0,0-.26-.29,1.32,1.32,0,0,0-.45-.18,3.23,3.23,0,0,0-.66-.06h-1v1.87l.24,0,.24,0h.48a3,3,0,0,0,.66-.07,1.37,1.37,0,0,0,.44-.2.7.7,0,0,0,.26-.31A.91.91,0,0,0,102.18,140.59Z" transform="translate(-73.61 -85.8)"/><path d="M108.56,142.09a.14.14,0,0,1,0,.11.32.32,0,0,1-.13.05l-.24,0-.24,0a.27.27,0,0,1-.13-.05.14.14,0,0,1,0-.11v-.52a2.84,2.84,0,0,1-.78.57,2,2,0,0,1-.89.2,2.59,2.59,0,0,1-.76-.1,1.76,1.76,0,0,1-.57-.32,1.34,1.34,0,0,1-.37-.5,1.65,1.65,0,0,1-.13-.68,1.54,1.54,0,0,1,.18-.77,1.51,1.51,0,0,1,.52-.55,2.61,2.61,0,0,1,.83-.32,4.75,4.75,0,0,1,1.11-.11h.73v-.41a2.08,2.08,0,0,0-.07-.54.82.82,0,0,0-.21-.39.88.88,0,0,0-.37-.24,1.79,1.79,0,0,0-.56-.08,2.11,2.11,0,0,0-.64.09,3.51,3.51,0,0,0-.5.19l-.36.18a.43.43,0,0,1-.21.09l-.08,0-.07-.07a.53.53,0,0,1,0-.12.88.88,0,0,1,0-.17.75.75,0,0,1,0-.23.33.33,0,0,1,.09-.16,1.72,1.72,0,0,1,.28-.18,3.08,3.08,0,0,1,.44-.18,3,3,0,0,1,.55-.14,3.08,3.08,0,0,1,.61-.06,3,3,0,0,1,1,.13,1.5,1.5,0,0,1,.65.38,1.55,1.55,0,0,1,.36.61,3.23,3.23,0,0,1,.11.87Zm-1-2.41h-.83a3.34,3.34,0,0,0-.69.07,1.48,1.48,0,0,0-.49.2.78.78,0,0,0-.28.32.93.93,0,0,0-.09.42.85.85,0,0,0,.26.66,1,1,0,0,0,.73.24,1.41,1.41,0,0,0,.7-.19,3,3,0,0,0,.69-.6Z" transform="translate(-73.61 -85.8)"/><path d="M117.57,139.38a4.07,4.07,0,0,1-.17,1.19,2.83,2.83,0,0,1-.51.94,2.34,2.34,0,0,1-.81.61,2.54,2.54,0,0,1-1.1.22,2.92,2.92,0,0,1-1.08-.17,1.94,1.94,0,0,1-.77-.5,2.45,2.45,0,0,1-.47-.82,4,4,0,0,1-.19-1.1H111.3v2.34a.24.24,0,0,1,0,.08l-.08.05-.15,0h-.47l-.15,0a.16.16,0,0,1-.08-.05.24.24,0,0,1,0-.08v-5.28a.24.24,0,0,1,0-.08.16.16,0,0,1,.08,0l.15,0h.47l.15,0,.08,0a.24.24,0,0,1,0,.08V139h1.19a3.61,3.61,0,0,1,.24-1,2.16,2.16,0,0,1,.51-.77,2.14,2.14,0,0,1,.77-.5,2.91,2.91,0,0,1,1.06-.18,2.84,2.84,0,0,1,1.1.2,2,2,0,0,1,.78.57,2.42,2.42,0,0,1,.46.89A3.9,3.9,0,0,1,117.57,139.38Zm-1,.06a4.07,4.07,0,0,0-.08-.79,1.73,1.73,0,0,0-.24-.66,1.16,1.16,0,0,0-.47-.46,1.68,1.68,0,0,0-1.45,0,1.35,1.35,0,0,0-.49.43,1.8,1.8,0,0,0-.28.66,3.49,3.49,0,0,0-.09.82,4.43,4.43,0,0,0,.07.83,1.73,1.73,0,0,0,.24.66,1.24,1.24,0,0,0,.46.45,1.54,1.54,0,0,0,.75.16,1.62,1.62,0,0,0,.68-.13,1.35,1.35,0,0,0,.49-.4,1.86,1.86,0,0,0,.3-.65A3.6,3.6,0,0,0,116.56,139.44Z" transform="translate(-73.61 -85.8)"/><path d="M122.6,137.1a1,1,0,0,1,0,.2.42.42,0,0,1,0,.13s0,.07-.07.08a.11.11,0,0,1-.08,0h-1.59v4.55a.12.12,0,0,1,0,.08.13.13,0,0,1-.07.05l-.15,0h-.48l-.15,0a.13.13,0,0,1-.07-.05.12.12,0,0,1,0-.08v-4.55h-1.58a.14.14,0,0,1-.09,0,.18.18,0,0,1-.06-.08.4.4,0,0,1,0-.13,1.34,1.34,0,0,1,0-.21,1,1,0,0,1,0-.18.47.47,0,0,1,0-.14.28.28,0,0,1,.06-.08.14.14,0,0,1,.09,0h4.13a.11.11,0,0,1,.08,0,.12.12,0,0,1,.06.08.47.47,0,0,1,0,.14A1.11,1.11,0,0,1,122.6,137.1Z" transform="translate(-73.61 -85.8)"/><path d="M130.72,142.09a.13.13,0,0,1,0,.08.13.13,0,0,1-.07.05l-.15,0H130a.39.39,0,0,1-.15,0,.12.12,0,0,1-.08-.05.13.13,0,0,1,0-.08v-4.61h-2.51v4.61a.24.24,0,0,1,0,.08.16.16,0,0,1-.08.05l-.15,0h-.47l-.15,0a.16.16,0,0,1-.08-.05.24.24,0,0,1,0-.08V137a.37.37,0,0,1,.08-.26.29.29,0,0,1,.22-.09h3.86a.27.27,0,0,1,.22.09.37.37,0,0,1,.08.26Z" transform="translate(-73.61 -85.8)"/><path d="M137,139.22a.45.45,0,0,1-.11.33.44.44,0,0,1-.27.09h-3.47a3.12,3.12,0,0,0,.09.79,1.65,1.65,0,0,0,.29.61,1.32,1.32,0,0,0,.54.38,2.14,2.14,0,0,0,.81.14,3.4,3.4,0,0,0,.67-.06,4.6,4.6,0,0,0,.51-.14l.35-.14a.57.57,0,0,1,.21-.06l.07,0,.05.06a1,1,0,0,1,0,.12s0,.11,0,.18a.53.53,0,0,1,0,.13s0,.07,0,.1l0,.08-.05.06a.77.77,0,0,1-.2.11,1.93,1.93,0,0,1-.41.14,5.13,5.13,0,0,1-.58.13,3.91,3.91,0,0,1-.7.05,3.25,3.25,0,0,1-1.14-.18,2.14,2.14,0,0,1-.83-.54,2.2,2.2,0,0,1-.5-.89,4.32,4.32,0,0,1-.17-1.26,4.18,4.18,0,0,1,.17-1.22,2.64,2.64,0,0,1,.51-.92,2.32,2.32,0,0,1,.8-.58,2.69,2.69,0,0,1,1.05-.2,2.6,2.6,0,0,1,1.06.2,2,2,0,0,1,.72.54,2.2,2.2,0,0,1,.41.79,3.35,3.35,0,0,1,.13,1Zm-1-.29a1.76,1.76,0,0,0-.34-1.19,1.29,1.29,0,0,0-1.06-.43,1.39,1.39,0,0,0-.63.13,1.33,1.33,0,0,0-.45.36,1.55,1.55,0,0,0-.29.52,2.44,2.44,0,0,0-.11.61Z" transform="translate(-73.61 -85.8)"/><path d="M143.33,139.37a4.73,4.73,0,0,1-.15,1.24,2.51,2.51,0,0,1-.44.93,2,2,0,0,1-.71.6,2.23,2.23,0,0,1-1,.2,2.06,2.06,0,0,1-.44,0,1.56,1.56,0,0,1-.39-.15,2.68,2.68,0,0,1-.37-.25,4.18,4.18,0,0,1-.4-.36v2.64a.11.11,0,0,1,0,.08.22.22,0,0,1-.07.06.57.57,0,0,1-.15,0l-.24,0-.23,0a.43.43,0,0,1-.15,0,.28.28,0,0,1-.08-.06.19.19,0,0,1,0-.08v-7.37a.19.19,0,0,1,0-.08.14.14,0,0,1,.07-.06l.13,0h.4l.14,0a.22.22,0,0,1,.07.06.19.19,0,0,1,0,.08v.71c.16-.16.32-.3.46-.43a2.93,2.93,0,0,1,.45-.3,2.19,2.19,0,0,1,.46-.18,2.1,2.1,0,0,1,.51-.06,2,2,0,0,1,1,.22,1.84,1.84,0,0,1,.66.61,2.81,2.81,0,0,1,.38.9A5.44,5.44,0,0,1,143.33,139.37Zm-1,.11a4.93,4.93,0,0,0-.06-.78,2.2,2.2,0,0,0-.21-.67,1.18,1.18,0,0,0-.41-.47,1.07,1.07,0,0,0-.63-.18,1.19,1.19,0,0,0-.37.06,1.22,1.22,0,0,0-.37.17,2.66,2.66,0,0,0-.4.32,5.49,5.49,0,0,0-.43.48v2.1a4,4,0,0,0,.76.74,1.22,1.22,0,0,0,.75.26,1.14,1.14,0,0,0,.63-.17,1.39,1.39,0,0,0,.43-.47,2.71,2.71,0,0,0,.23-.66A3,3,0,0,0,142.33,139.48Z" transform="translate(-73.61 -85.8)"/><path d="M149.29,139.22a.42.42,0,0,1-.12.33.41.41,0,0,1-.26.09h-3.47a3.7,3.7,0,0,0,.08.79,1.52,1.52,0,0,0,.3.61,1.29,1.29,0,0,0,.53.38,2.14,2.14,0,0,0,.81.14,3.33,3.33,0,0,0,.67-.06,3.63,3.63,0,0,0,.51-.14l.35-.14a.69.69,0,0,1,.21-.06l.08,0,.05.06a.37.37,0,0,1,0,.12,1,1,0,0,1,0,.18v.13s0,.07,0,.1a.13.13,0,0,1,0,.08l0,.06a.53.53,0,0,1-.19.11,2.16,2.16,0,0,1-.41.14,5.68,5.68,0,0,1-.58.13,4,4,0,0,1-.71.05,3.33,3.33,0,0,1-1.14-.18,2,2,0,0,1-.82-.54,2.34,2.34,0,0,1-.51-.89,4.32,4.32,0,0,1-.17-1.26,3.86,3.86,0,0,1,.18-1.22,2.64,2.64,0,0,1,.51-.92,2.23,2.23,0,0,1,.8-.58,2.69,2.69,0,0,1,1.05-.2,2.55,2.55,0,0,1,1.05.2,2,2,0,0,1,.72.54,1.92,1.92,0,0,1,.41.79,3.34,3.34,0,0,1,.14,1Zm-1-.29a1.76,1.76,0,0,0-.34-1.19,1.27,1.27,0,0,0-1.05-.43,1.39,1.39,0,0,0-.63.13,1.27,1.27,0,0,0-.46.36,1.53,1.53,0,0,0-.28.52,1.78,1.78,0,0,0-.11.61Z" transform="translate(-73.61 -85.8)"/><path d="M154.55,141.28a1,1,0,0,1,0,.18.37.37,0,0,1,0,.12l0,.09-.1.11a1.25,1.25,0,0,1-.25.18,2,2,0,0,1-.39.19,2.43,2.43,0,0,1-.48.14,2.32,2.32,0,0,1-.53.05,2.64,2.64,0,0,1-1-.18,2,2,0,0,1-.74-.55,2.76,2.76,0,0,1-.45-.89,4.35,4.35,0,0,1-.15-1.21,4.06,4.06,0,0,1,.19-1.33,2.41,2.41,0,0,1,.52-.92,2,2,0,0,1,.78-.53,2.57,2.57,0,0,1,1-.17,2.63,2.63,0,0,1,.49,0,1.8,1.8,0,0,1,.43.13,1.71,1.71,0,0,1,.36.17,1.21,1.21,0,0,1,.22.17l.1.11a.3.3,0,0,1,0,.1.5.5,0,0,1,0,.13v.17a.64.64,0,0,1-.05.32.15.15,0,0,1-.13.09.31.31,0,0,1-.2-.1l-.29-.21a2.06,2.06,0,0,0-.42-.21,1.55,1.55,0,0,0-.59-.1,1.22,1.22,0,0,0-1.07.54,2.67,2.67,0,0,0-.37,1.55,4,4,0,0,0,.09.9,1.89,1.89,0,0,0,.29.64,1.06,1.06,0,0,0,.46.38,1.52,1.52,0,0,0,.62.13,1.55,1.55,0,0,0,.59-.11,2.86,2.86,0,0,0,.43-.23,2.27,2.27,0,0,0,.31-.23.36.36,0,0,1,.2-.1l.07,0a.16.16,0,0,1,0,.08l0,.14C154.54,141.14,154.55,141.21,154.55,141.28Z" transform="translate(-73.61 -85.8)"/><path d="M159.52,137.1a1.15,1.15,0,0,1,0,.2.4.4,0,0,1,0,.13.18.18,0,0,1-.06.08.12.12,0,0,1-.09,0h-1.58v4.55a.24.24,0,0,1,0,.08.16.16,0,0,1-.08.05.39.39,0,0,1-.15,0H157l-.15,0a.16.16,0,0,1-.08-.05.24.24,0,0,1,0-.08v-4.55h-1.58a.11.11,0,0,1-.08,0,.1.1,0,0,1-.06-.08.4.4,0,0,1,0-.13,1.25,1.25,0,0,1,0-.21.9.9,0,0,1,0-.18.47.47,0,0,1,0-.14.28.28,0,0,1,.06-.08.11.11,0,0,1,.08,0h4.13a.16.16,0,0,1,.09,0,.28.28,0,0,1,.06.08,1.27,1.27,0,0,1,0,.14A1.15,1.15,0,0,1,159.52,137.1Z" transform="translate(-73.61 -85.8)"/><path d="M164.45,142.09a.14.14,0,0,1,0,.11.32.32,0,0,1-.13.05l-.24,0-.24,0a.32.32,0,0,1-.13-.05.14.14,0,0,1,0-.11v-.52a2.8,2.8,0,0,1-.77.57,2,2,0,0,1-.9.2,2.59,2.59,0,0,1-.76-.1,1.76,1.76,0,0,1-.57-.32,1.34,1.34,0,0,1-.37-.5,1.65,1.65,0,0,1-.13-.68,1.54,1.54,0,0,1,.18-.77,1.6,1.6,0,0,1,.52-.55,2.71,2.71,0,0,1,.83-.32,4.75,4.75,0,0,1,1.11-.11h.73v-.41a1.73,1.73,0,0,0-.07-.54.9.9,0,0,0-.2-.39.92.92,0,0,0-.38-.24,1.79,1.79,0,0,0-.56-.08,2.11,2.11,0,0,0-.64.09,3.51,3.51,0,0,0-.5.19l-.36.18a.43.43,0,0,1-.21.09l-.08,0s-.05,0-.06-.07a.56.56,0,0,1,0-.12.91.91,0,0,1,0-.17.79.79,0,0,1,0-.23.28.28,0,0,1,.1-.16,1.23,1.23,0,0,1,.27-.18,3.24,3.24,0,0,1,.45-.18,2.76,2.76,0,0,1,.55-.14,3.4,3.4,0,0,1,1.57.07,1.46,1.46,0,0,1,.64.38,1.44,1.44,0,0,1,.36.61,3.23,3.23,0,0,1,.11.87Zm-1-2.41h-.83a3.49,3.49,0,0,0-.69.07,1.57,1.57,0,0,0-.49.2.86.86,0,0,0-.28.32.93.93,0,0,0-.09.42.88.88,0,0,0,.26.66,1,1,0,0,0,.73.24,1.48,1.48,0,0,0,.71-.19,3.21,3.21,0,0,0,.68-.6Z" transform="translate(-73.61 -85.8)"/><path d="M170.85,142.09a.13.13,0,0,1,0,.08.13.13,0,0,1-.07.05l-.15,0h-.47l-.15,0-.08-.05a.24.24,0,0,1,0-.08v-2.32h-2.69v2.32a.24.24,0,0,1,0,.08.16.16,0,0,1-.08.05.39.39,0,0,1-.14,0h-.48l-.15,0a.1.1,0,0,1-.07-.05.12.12,0,0,1,0-.08v-5.28a.12.12,0,0,1,0-.08.1.1,0,0,1,.07,0l.15,0H167a.39.39,0,0,1,.14,0,.16.16,0,0,1,.08,0,.24.24,0,0,1,0,.08V139h2.69v-2.15a.24.24,0,0,1,0-.08l.08,0,.15,0h.47l.15,0a.13.13,0,0,1,.07,0,.13.13,0,0,1,0,.08Z" transform="translate(-73.61 -85.8)"/><path d="M177.55,139.39a4.07,4.07,0,0,1-.17,1.19,2.79,2.79,0,0,1-.51.93,2.43,2.43,0,0,1-.85.62,3.41,3.41,0,0,1-2.3,0,2.14,2.14,0,0,1-.81-.56,2.59,2.59,0,0,1-.48-.9,4,4,0,0,1-.16-1.19,4.07,4.07,0,0,1,.17-1.19,2.6,2.6,0,0,1,.5-.93,2.22,2.22,0,0,1,.84-.61,2.89,2.89,0,0,1,1.18-.22,3.06,3.06,0,0,1,1.14.19,2,2,0,0,1,.8.57,2.19,2.19,0,0,1,.48.89A4,4,0,0,1,177.55,139.39Zm-1,.07a3.48,3.48,0,0,0-.08-.81,1.91,1.91,0,0,0-.26-.67,1.28,1.28,0,0,0-.5-.45,1.53,1.53,0,0,0-.78-.17,1.72,1.72,0,0,0-.74.15,1.34,1.34,0,0,0-.51.43,2.22,2.22,0,0,0-.3.66,3.56,3.56,0,0,0-.1.83,4.3,4.3,0,0,0,.08.82,2.18,2.18,0,0,0,.27.66,1.28,1.28,0,0,0,.5.45,1.67,1.67,0,0,0,.78.17,1.72,1.72,0,0,0,.74-.15,1.34,1.34,0,0,0,.51-.43,1.67,1.67,0,0,0,.3-.66A3.58,3.58,0,0,0,176.54,139.46Z" transform="translate(-73.61 -85.8)"/><path d="M183.3,140.57a1.61,1.61,0,0,1-.16.74,1.38,1.38,0,0,1-.47.55,2.38,2.38,0,0,1-.77.33,4.38,4.38,0,0,1-1.08.11h-.73l-.33,0-.33,0a.5.5,0,0,1-.35-.16.54.54,0,0,1-.11-.37v-4.54a.58.58,0,0,1,.11-.37.51.51,0,0,1,.33-.15l.32,0,.36,0,.37,0h.4a4.74,4.74,0,0,1,1,.09,2.21,2.21,0,0,1,.69.28,1.14,1.14,0,0,1,.41.44,1.33,1.33,0,0,1,.13.61,1.23,1.23,0,0,1-.24.76,1.26,1.26,0,0,1-.7.45,1.53,1.53,0,0,1,.88.47A1.38,1.38,0,0,1,183.3,140.57Zm-1.17-2.45a.81.81,0,0,0-.07-.35.55.55,0,0,0-.23-.25,1.1,1.1,0,0,0-.41-.16,2.82,2.82,0,0,0-.62-.05h-.51l-.38,0V139h1a1.58,1.58,0,0,0,.92-.22A.73.73,0,0,0,182.13,138.12Zm.18,2.47a1.08,1.08,0,0,0-.08-.42.72.72,0,0,0-.26-.29,1.38,1.38,0,0,0-.46-.18,3.23,3.23,0,0,0-.66-.06h-.94v1.87l.23,0,.24,0h.49a3,3,0,0,0,.65-.07,1.33,1.33,0,0,0,.45-.2.77.77,0,0,0,.26-.31A1.07,1.07,0,0,0,182.31,140.59Z" transform="translate(-73.61 -85.8)"/><path d="M189,142.13a.14.14,0,0,1,0,.06.15.15,0,0,1-.08,0,.49.49,0,0,1-.15,0h-.49a.61.61,0,0,1-.17,0,.19.19,0,0,1-.09-.05.1.1,0,0,1,0-.07l-.57-1.37a3.15,3.15,0,0,0-.22-.45,1.21,1.21,0,0,0-.28-.31,1.19,1.19,0,0,0-.36-.17,2,2,0,0,0-.46-.05h-.41v2.37a.09.09,0,0,1,0,.06.12.12,0,0,1-.08,0l-.16,0H185l-.15,0a.19.19,0,0,1-.09,0,.14.14,0,0,1,0-.06v-5.35a.14.14,0,0,1,0-.06.19.19,0,0,1,.09,0l.15,0h.43l.16,0s.07,0,.08,0a.09.09,0,0,1,0,.06V139h.41a1.7,1.7,0,0,0,.41,0,1.09,1.09,0,0,0,.61-.46,3,3,0,0,0,.22-.44l.49-1.22a.2.2,0,0,1,0-.08l.09-.06.16,0h.48l.14,0s.06,0,.07,0a.14.14,0,0,1,0,.06.52.52,0,0,1,0,.11.93.93,0,0,1,0,.13l-.5,1.16a2.89,2.89,0,0,1-.26.5,1.87,1.87,0,0,1-.28.33,1.62,1.62,0,0,1-.28.2l-.29.12h0a1.46,1.46,0,0,1,.38.17,1.28,1.28,0,0,1,.32.24,2,2,0,0,1,.28.35,2.58,2.58,0,0,1,.24.47l.58,1.33a.59.59,0,0,1,0,.08s0,.05,0,.07v.09Z" transform="translate(-73.61 -85.8)"/><path d="M194.08,142.09a.14.14,0,0,1-.05.11.32.32,0,0,1-.13.05l-.24,0-.24,0a.32.32,0,0,1-.13-.05.14.14,0,0,1,0-.11v-.52a2.8,2.8,0,0,1-.77.57,2,2,0,0,1-.9.2,2.48,2.48,0,0,1-.75-.1,1.71,1.71,0,0,1-.58-.32,1.34,1.34,0,0,1-.37-.5,1.65,1.65,0,0,1-.13-.68,1.54,1.54,0,0,1,.18-.77,1.6,1.6,0,0,1,.52-.55,2.68,2.68,0,0,1,.84-.32,4.6,4.6,0,0,1,1.1-.11h.73v-.41a2.12,2.12,0,0,0-.06-.54,1,1,0,0,0-.21-.39,1,1,0,0,0-.37-.24,1.86,1.86,0,0,0-.57-.08,2.11,2.11,0,0,0-.64.09,4,4,0,0,0-.5.19l-.35.18a.5.5,0,0,1-.22.09l-.08,0-.06-.07a.56.56,0,0,1,0-.12.91.91,0,0,1,0-.17,1.4,1.4,0,0,1,0-.23.35.35,0,0,1,.1-.16,1.23,1.23,0,0,1,.27-.18,3.24,3.24,0,0,1,.45-.18,2.76,2.76,0,0,1,.55-.14,3.4,3.4,0,0,1,1.57.07,1.46,1.46,0,0,1,.64.38,1.34,1.34,0,0,1,.36.61,3.23,3.23,0,0,1,.11.87Zm-1-2.41h-.83a3.49,3.49,0,0,0-.69.07,1.42,1.42,0,0,0-.48.2.8.8,0,0,0-.29.32.93.93,0,0,0-.09.42.88.88,0,0,0,.26.66,1.05,1.05,0,0,0,.73.24,1.48,1.48,0,0,0,.71-.19,3.21,3.21,0,0,0,.68-.6Z" transform="translate(-73.61 -85.8)"/><path d="M202.52,142a.21.21,0,0,1-.09.19.85.85,0,0,1-.35.05h-.24l-.15,0a.1.1,0,0,1-.07-.05.12.12,0,0,1,0-.09l-.38-3.07c0-.11,0-.23,0-.35l0-.38,0-.39a3.6,3.6,0,0,0,0-.36v-.14c0,.11-.07.23-.11.36s-.08.25-.13.38l-.13.39c0,.13-.08.25-.11.36L199.48,142a.34.34,0,0,1-.06.12.3.3,0,0,1-.08.08l-.14,0h-.42a.4.4,0,0,1-.13,0l-.1-.07a.43.43,0,0,1-.05-.12l-1.07-3.13-.12-.35-.12-.39c0-.13-.09-.26-.12-.39a2.8,2.8,0,0,1-.1-.36v.14q0,.16,0,.36c0,.13,0,.26,0,.39s0,.25,0,.38,0,.24,0,.35l-.36,3a.21.21,0,0,1,0,.12.11.11,0,0,1-.07.06l-.16,0h-.47a.33.33,0,0,1-.13,0,.16.16,0,0,1-.06-.08.2.2,0,0,1,0-.11l.58-5a.46.46,0,0,1,.13-.28.41.41,0,0,1,.31-.1H197a1.17,1.17,0,0,1,.29,0,.67.67,0,0,1,.21.09.61.61,0,0,1,.14.17,1.16,1.16,0,0,1,.11.27l.78,2.25c.05.13.09.27.14.41s.09.28.13.41l.12.4c0,.13.07.25.1.37h0c0-.13.07-.25.11-.39l.12-.41c0-.14.09-.27.13-.41l.13-.39.78-2.24c0-.09.07-.18.1-.25a.86.86,0,0,1,.14-.18.63.63,0,0,1,.2-.1,1.09,1.09,0,0,1,.28,0h.45a.49.49,0,0,1,.32.09.36.36,0,0,1,.13.28Z" transform="translate(-73.61 -85.8)"/><path d="M208.66,142.09a.11.11,0,0,1,0,.08.12.12,0,0,1-.08.05.39.39,0,0,1-.14,0H208l-.15,0a.12.12,0,0,1-.08-.05.11.11,0,0,1,0-.08v-3c0-.15,0-.31,0-.47l0-.46-.29.46-.33.44-2.24,3.06-.07.08a.16.16,0,0,1-.08.06l-.13,0h-.4l-.13,0a.18.18,0,0,1-.07-.05.19.19,0,0,1,0-.08v-5.28a.19.19,0,0,1,0-.08l.08-.06.15,0h.23a1.07,1.07,0,0,1,.38.05c.07,0,.11.07.11.13v3.05c0,.15,0,.3,0,.45l0,.45.27-.43a3.19,3.19,0,0,1,.3-.42l2.26-3.1.08-.08a.15.15,0,0,1,.09-.06l.13,0h.41l.13,0a.14.14,0,0,1,.07.06.11.11,0,0,1,0,.08Z" transform="translate(-73.61 -85.8)"/><path d="M211.71,141.59a.82.82,0,0,1-.14.56.71.71,0,0,1-.5.14.68.68,0,0,1-.49-.14.79.79,0,0,1-.13-.54.8.8,0,0,1,.13-.55.73.73,0,0,1,.5-.14.68.68,0,0,1,.49.14A.77.77,0,0,1,211.71,141.59Z" transform="translate(-73.61 -85.8)"/><path d="M184.68,89.38a5.39,5.39,0,0,1-.11,1,4.84,4.84,0,0,1-.36,1,4.29,4.29,0,0,1-.64,1,4.23,4.23,0,0,1-.95.82,4.65,4.65,0,0,1-1.32.56,6.53,6.53,0,0,1-1.76.21h-1.18l-.73,3.64a.29.29,0,0,1-.09.16.64.64,0,0,1-.22.11,2.62,2.62,0,0,1-.38.07l-.56,0-.54,0a1.81,1.81,0,0,1-.34-.07.38.38,0,0,1-.17-.11.18.18,0,0,1,0-.16l2-10.24a1,1,0,0,1,1-.83h2.48c.31,0,.58,0,.82,0s.48.06.71.1a3.58,3.58,0,0,1,1,.33,2.65,2.65,0,0,1,.72.55,2.39,2.39,0,0,1,.46.77A3.15,3.15,0,0,1,184.68,89.38Zm-2.44.26a1.35,1.35,0,0,0-.2-.73,1.06,1.06,0,0,0-.62-.43,1.74,1.74,0,0,0-.42-.08,4,4,0,0,0-.51,0h-1l-.75,3.86h1.05a2.7,2.7,0,0,0,.86-.12,2.27,2.27,0,0,0,.62-.32,2,2,0,0,0,.46-.45,2.57,2.57,0,0,0,.31-.56,3,3,0,0,0,.17-.58A3.88,3.88,0,0,0,182.24,89.64Z" transform="translate(-73.61 -85.8)"/><path d="M204.83,91.12a1.51,1.51,0,0,1-.1.66.31.31,0,0,1-.29.19h-6.7a.31.31,0,0,1-.29-.19,1.51,1.51,0,0,1-.1-.66,1.63,1.63,0,0,1,.09-.64.31.31,0,0,1,.3-.2h6.7a.31.31,0,0,1,.3.2A1.63,1.63,0,0,1,204.83,91.12Zm0,3.55a1.45,1.45,0,0,1-.1.66.32.32,0,0,1-.29.18h-6.7a.32.32,0,0,1-.29-.18,1.45,1.45,0,0,1-.1-.66,1.73,1.73,0,0,1,.09-.65.3.3,0,0,1,.3-.19h6.7a.3.3,0,0,1,.3.19A1.73,1.73,0,0,1,204.83,94.67Z" transform="translate(-73.61 -85.8)"/><path d="M218.44,91.58c0,.2,0,.41,0,.61s-.06.42-.11.63l-1,4.85a.28.28,0,0,1-.08.15.68.68,0,0,1-.21.11,1.94,1.94,0,0,1-.35.07l-.54,0-.53,0a1.56,1.56,0,0,1-.32-.07.27.27,0,0,1-.15-.11.19.19,0,0,1,0-.15l.95-4.71c0-.14.05-.28.07-.43s0-.27,0-.38a1.16,1.16,0,0,0-.17-.65.62.62,0,0,0-.56-.26,1.51,1.51,0,0,0-.75.23,3,3,0,0,0-.74.62,4.69,4.69,0,0,0-.62.91,4.25,4.25,0,0,0-.39,1.12l-.71,3.55a.28.28,0,0,1-.08.15.53.53,0,0,1-.2.11,2.08,2.08,0,0,1-.36.07L211,98l-.54,0a1.73,1.73,0,0,1-.32-.07.34.34,0,0,1-.16-.11.24.24,0,0,1,0-.15l1.57-7.85a.46.46,0,0,1,.07-.16.5.5,0,0,1,.18-.1,1.13,1.13,0,0,1,.31-.06,3,3,0,0,1,.45,0,2.76,2.76,0,0,1,.44,0,.77.77,0,0,1,.27.06.24.24,0,0,1,.13.1.22.22,0,0,1,0,.16l-.25,1.29a4.17,4.17,0,0,1,.49-.63,4,4,0,0,1,.71-.57,3.9,3.9,0,0,1,.87-.42,2.92,2.92,0,0,1,1-.16,2.6,2.6,0,0,1,1,.18,1.72,1.72,0,0,1,1,1.2A3,3,0,0,1,218.44,91.58Z" transform="translate(-73.61 -85.8)"/><path d="M223.13,96.26a1.73,1.73,0,0,1,0,.37,3.67,3.67,0,0,1-.09.43,2.7,2.7,0,0,1-.14.4,1,1,0,0,1-.63.55,2.09,2.09,0,0,1-.67.09,2.47,2.47,0,0,1-.52,0,.68.68,0,0,1-.32-.15.48.48,0,0,1-.17-.23,1,1,0,0,1,0-.31,2.6,2.6,0,0,1,0-.35,2.07,2.07,0,0,1,.08-.42,4.11,4.11,0,0,1,.15-.42,1.11,1.11,0,0,1,.21-.32,1,1,0,0,1,.45-.27,2.25,2.25,0,0,1,.63-.08,2,2,0,0,1,.55.06.87.87,0,0,1,.32.16.54.54,0,0,1,.16.24A1,1,0,0,1,223.13,96.26Zm.17-2a.37.37,0,0,1-.09.16.62.62,0,0,1-.19.12,1.61,1.61,0,0,1-.31.07,3,3,0,0,1-.46,0,2.86,2.86,0,0,1-.46,0,1.26,1.26,0,0,1-.28-.07.38.38,0,0,1-.13-.12.29.29,0,0,1,0-.16l1.37-8a.47.47,0,0,1,.1-.2.53.53,0,0,1,.22-.15,1.66,1.66,0,0,1,.39-.08,4.62,4.62,0,0,1,.58,0,4.45,4.45,0,0,1,.57,0,1.21,1.21,0,0,1,.35.08.32.32,0,0,1,.17.15.44.44,0,0,1,0,.2Z" transform="translate(-73.61 -85.8)"/><path d="M190.19,95.41a2.93,2.93,0,0,1,0,.41c0,.13,0,.27-.07.42l-.65,3.23a.14.14,0,0,1-.05.1.37.37,0,0,1-.14.07l-.23,0h-.72a.81.81,0,0,1-.21,0c-.05,0-.09,0-.1-.07a.12.12,0,0,1,0-.1l.63-3.14a2.74,2.74,0,0,0,.05-.28,2.54,2.54,0,0,0,0-.26.76.76,0,0,0-.11-.44.41.41,0,0,0-.37-.17.92.92,0,0,0-.5.16,2.1,2.1,0,0,0-.5.41,3.09,3.09,0,0,0-.41.61,2.71,2.71,0,0,0-.26.74L186,99.47a.21.21,0,0,1-.06.1.32.32,0,0,1-.13.07,1.11,1.11,0,0,1-.24,0h-.71a.9.9,0,0,1-.22,0,.2.2,0,0,1-.1-.07.11.11,0,0,1,0-.1l1.05-5.24a.16.16,0,0,1,0-.1.23.23,0,0,1,.11-.07l.21,0h.6l.18,0s.07,0,.08.07a.17.17,0,0,1,0,.1l-.17.87a2,2,0,0,1,.33-.42,2.27,2.27,0,0,1,.47-.39,2.8,2.8,0,0,1,.58-.27,1.81,1.81,0,0,1,.65-.11,1.71,1.71,0,0,1,.69.12,1.18,1.18,0,0,1,.45.32,1.23,1.23,0,0,1,.25.48A2.14,2.14,0,0,1,190.19,95.41Z" transform="translate(-73.61 -85.8)"/></svg>